<?xml version="1.0" encoding="utf-8"?>
<!-- Generator: Adobe Illustrator 25.1.0, SVG Export Plug-In . SVG Version: 6.00 Build 0)  -->
<!DOCTYPE svg PUBLIC "-//W3C//DTD SVG 1.1//EN" "http://www.w3.org/Graphics/SVG/1.1/DTD/svg11.dtd" [
	<!ENTITY ns_extend "http://ns.adobe.com/Extensibility/1.0/">
	<!ENTITY ns_ai "http://ns.adobe.com/AdobeIllustrator/10.0/">
	<!ENTITY ns_graphs "http://ns.adobe.com/Graphs/1.0/">
	<!ENTITY ns_vars "http://ns.adobe.com/Variables/1.0/">
	<!ENTITY ns_imrep "http://ns.adobe.com/ImageReplacement/1.0/">
	<!ENTITY ns_sfw "http://ns.adobe.com/SaveForWeb/1.0/">
	<!ENTITY ns_custom "http://ns.adobe.com/GenericCustomNamespace/1.0/">
	<!ENTITY ns_adobe_xpath "http://ns.adobe.com/XPath/1.0/">
]>
<svg version="1.1" id="Layer_1" xmlns:x="&ns_extend;" xmlns:i="&ns_ai;" xmlns:graph="&ns_graphs;"
	 xmlns="http://www.w3.org/2000/svg" xmlns:xlink="http://www.w3.org/1999/xlink" x="0px" y="0px" viewBox="0 0 512 640"
	 style="enable-background:new 0 0 512 640;" xml:space="preserve">
<style type="text/css">
	.st0{fill:#9CFA00;}
</style>
<metadata>
	<x:xmpmeta  x:xmptk="Adobe XMP Core 5.6-c148 79.164050, 2019/10/01-18:03:16        " xmlns:x="adobe:ns:meta/"></x:xmpmeta>
	<sfw  xmlns="&ns_sfw;">
		<slices></slices>
		<sliceSourceBounds  bottomLeftOrigin="true" height="507" width="488.7" x="11.6" y="66.5"></sliceSourceBounds>
	</sfw>
</metadata>
<g>
	<path class="st0" d="M305.4,363.4c-0.9,1.1-3.6,5.8-9.5,16.3c-3.9,6.9-8.9,15.7-14.6,25.7c-5.9-7.5-18.1-17.8-41.2-19.4
		c11.6-42.6,27.4-93.3,27.6-93.9l-3.7-1.2c-0.1,0.2-2,6.5-5,16.4c-6.8-31.4,6.1-43.5,8.2-45.3c4.4-0.7,38.9-5.6,57.1,9.3
		c7.2,5.9,11,14.3,11.3,24.9l0.1,1.6C336.1,306,337.1,325.4,305.4,363.4z"/>
	<path class="st0" d="M314.3,358.6c26.6-34.5,25.7-52.8,25.3-61l-0.1-1.5c0-0.5-0.1-1-0.1-1.4c33.1,55.5,40.9,70.5,46.6,82.4
		c-9.6,1.2-28.9,6.5-38,28.2C327.3,384.4,318,367.1,314.3,358.6z"/>
	<g>
		<g>
			<path class="st0" d="M44,349.3c0.2,0,0.4,0,0.6,0c1.7,0,4-0.4,6.4-1.5c2.3,1.9,8,4.2,22,1.1c0.2-0.1,15.9-3.9,25.7,3.7
				c4.5,3.5,7.2,9,7.9,16.3c-2.4-1-6.2-2-11.5-2c-2.7,0-5.8,0.2-9.3,0.8c-23.1,3.9-30.5,0.8-30.6,0.7
				C44.7,363.8,43.8,353.6,44,349.3z"/>
			<path class="st0" d="M15.9,297.4c1.6-14.8,5.3-20.6,7.9-22.5c0.3,1.6,1.4,6.3,5.1,9.3c2.4,1.9,5.5,2.8,9.5,2.5
				c3.6-0.3,5.2,1.6,8.1,5.4c0.5,0.7,1.1,1.5,1.7,2.2c0.9,1.1,2.4,1.7,3.9,1.5l4.9-1.2c0.8-0.2,1.7,0.1,2.1,0.8l0.6,0.9
				c0.4,0.7,0.3,1.3,0.2,1.6c-0.1,0.3-0.4,0.9-1.1,1.2l-3.9,1.7c-3.7,2.1-6.8,6.3-4.3,11.9c1.2,2.8,3.6,4.6,6.4,4.8
				c0.8,0.1,1.8,0.2,2.9,0.2l0,0c3.8,0.3,9.2,0.5,13.4,0c3-0.3,6.1,0.3,8.8,1.9c2.5,1.4,3.4,4.1,2.4,6.2
				c-3.3,6.5-17.1,10.7-27.2,10.2l-5.8,0.6c-5.2-0.9-9,0.6-10.9,1.6c-1.4-1-3-2-4.5-3c-2.7-1.7-5.5-3.6-7.8-5.6
				c-8-7.2-10.1-11.1-11.5-16.6C15.6,308.3,15.3,303,15.9,297.4z"/>
			<g>
				<path class="st0" d="M424.9,557.2c-0.3,0-2.9,0.4-4.4,2.4c-0.8,1.1-1,2.4-0.8,3.8c0.2,1.2,0.9,2.2,1.9,2.8
					c0.4,0.3,0.9,0.5,1.3,0.6c0.1,0.3,0.3,0.6,0.6,0.9c0.4,0.5,1.1,1,2.3,1c0.2,0.3,0.6,0.5,0.9,0.7c0.4,0.2,1,0.4,1.8,0.5
					c0.2,0.3,0.5,0.5,0.8,0.8c0.4,0.2,0.9,0.5,1.6,0.5c0.5,0,1-0.1,1.6-0.4c0.9-0.4,2-0.5,3-0.4c4.5,0.6,13.4,1.1,21.8-1.4
					c7.4-2.2,26.7-1.6,26.8-1.6c6.6,0.4,11.3-1,13.9-4.2c3.2-3.8,2.1-8.7,2.1-8.7c-1-7.9-12.3-24.5-12.7-25.1
					c-3.8-6.1-7-12.7-9.4-19.5c-19.9-56.6-33.6-68.1-44.7-77.3c-1.6-1.3-3.1-2.6-4.6-4l-10.1-8.1c-3.9-3.1-7.3-6.6-10.4-10.5
					c-2.1-2.7-3.9-5.5-5.5-8.4c-5.9-10.9-8.8-16.9-11.6-22.8c-6.5-13.5-12.6-26.3-53.7-94.9c-2-6.2-5.6-11.4-10.7-15.6
					c-20.6-16.8-58.6-10.4-60.6-10c-1.4,0.2-58.6,6.3-108.6-12c-0.1-1-0.1-2.2-0.2-3.6c-0.5-7.5-1.3-20-0.9-36.8
					c0.7-25.6-6.1-49.8-12-65.7c-9.4-25.4-0.2-49.3-0.1-49.7c0.7-2.3-0.1-4.8-2.1-6.3l-1.3-1c-0.7-0.6-1.7-0.7-2.6-0.5
					c-0.9,0.3-1.6,1-1.8,1.7c-0.5,1.2-1,2.4-1.7,3.8l-2.9,9.6l-0.8-0.9c0,0-0.8-1.2-0.7-2.4l2.2-18.9c0.1-2.1-0.2-4.3-1.1-6.3
					l-0.3-0.8c-0.5-1.3-1.9-2.1-3.3-2c-1.4,0.1-2.6,1.1-2.9,2.5l-0.6,2.5c-0.4,1.8-0.9,3.6-1.3,5.3c-1.8,6.8-3.4,13.2-3.3,21.9
					c0.1,9.3,0.1,12.4,0,14.2c-0.1,2.9-0.1,2.9,0.9,17l1.5,21.6c0,0.5,0.2,2.2,0.4,4.8c0.8,9.8,2.9,35.9,2.8,40
					c0,1.5-1.6,10.9-2.9,19.2c-1.4,8.9-2.8,17.3-2.9,19.2c0,0.2-3.1,23-2.9,44.3c-7,3.1-12.7,1.2-14.6,0.3c-0.2-0.6-0.3-1.2-0.4-1.8
					c-0.4-2.6-0.5-5.4-0.2-8.3c0.4-3.1,0.2-6-0.4-8.9c-0.4-1.7-1.4-2.9-2.8-3.7c-2.1-1.2-5.2-1.3-9.1-0.2c-1.3,0.4-2.5,0.4-3.7,0
					l-1.8-1.5l-3.2,2.5l-2.5-2l-6,0.9l-0.7-0.8c-0.6-3-1.8-4.9-3.6-5.6c-2.3-0.9-4.3,0.6-4.7,0.8l-10,9c-0.9,0.2-2.8,0.5-3.2,0.6
					c-12,0.3-21.8,7.8-24.3,9.9c-1,0.1-2.5,0.4-4.2,1.6c-4.8,3.5-8,12-9.4,25.2c-0.7,6.1-0.3,11.9,1,17.1
					c1.8,7.1,4.9,11.6,12.7,18.6c2.5,2.2,5.4,4.1,8.3,6c1.5,1,3,1.9,4.4,2.9c-0.4,2-0.2,4.8,1.8,6.5c-0.3,4.3-0.1,18.1,13.4,24.1
					c0.3,0.2,8.2,3.8,33-0.4c15.4-2.6,21,2.2,21,2.2l3.3,3.2v-4.6c-0.1-10.5-3.3-18.2-9.6-23.1c-11.3-8.7-28.3-4.6-29-4.4
					c-11.9,2.6-16.6,1-18.2,0c0.9-1.6,0.9-3.3,0.4-4.7l2.5-0.3c10.1,0.6,26.5-3.4,31-12.4c0.7-1.3,0.9-2.8,0.8-4.2
					c3.2-1.3,5.8-2.5,7.1-3.2c1.4-0.8,2.7-1.3,3.8-1.7c2-0.6,4.2-1,6.2-0.9c4.2,0,7.3,1.3,9.2,3.7c4.1,5.2,2,14.4,1.9,15.1
					c-6.8,16.2,1.9,32.9,2.1,33.4c0.7,2,4.3,9.7,8.2,17.8c3.6,7.6,7.6,16.2,8.1,17.6c1.3,3.9,6.4,29.6,8.4,39.3
					c0.5,2.5,0.8,4.2,0.9,4.7l4.5,21.1c3,13.8,3,13.8,3.8,16.6c0.6,1.8,1.5,4.7,3.9,13.7c2.3,8.4,5.6,14.1,9.2,20.1
					c0.4,0.7,0.9,1.5,1.3,2.2c-3.4,4.9-6.6,8.6-9.8,11.4c-4.9,4.2-21.1,9.7-30.8,13c-3,1-5.6,1.9-7.3,2.5c-6.6,2.5-13.4,2.9-16.8,3
					v1.5v-1.5c-0.4,0-3.8,0.1-5.9,2.4c-1.1,1.2-1.6,2.8-1.4,4.6c0.2,2.2,1.8,4,3.8,4.6c0.1,0.5,0.3,1,0.6,1.4
					c0.5,0.6,1.3,1.3,2.8,1.5c0.3,0.4,0.6,0.9,1.2,1.2c0.7,0.5,1.5,0.8,2.4,0.8c0.2,0.5,0.5,0.9,1,1.3c0.7,0.5,1.9,1.1,3.8,0.5
					c1.5-0.4,3.1-0.5,4.6-0.1c4.3,1,11.5,2.4,19.5,2.4c3.5,0,7.1-0.3,10.7-0.9c10.7-1.9,19.5-0.1,19.6-0.1
					c6.6,1.3,11.6,0.3,14.8-2.8c4.8-4.7,3.5-12.2,3.5-12.3c0.2-6.8,2.7-13.6,7.1-19.1c11.3-14.3,19.1-23.5,22-26.2
					c26.7-24.3,68.6-98.7,86.5-130.5c4.5-8,8.4-14.9,9.1-15.8c1.1-1.3,2.1-2.6,3.1-3.9c6.3,13.5,23.8,43,67.4,74.6
					c9.6,7,15.9,16.4,22.7,26.3c1.2,1.7,2.4,3.5,3.6,5.3c5.1,7.4,14.7,19.3,31.4,34.5c11.5,10.4,24.7,34.2,26.9,38.6
					c-1.9,1.9-9.5,6.1-22.6,12.7l-2.8,1.4c-3,1.5-7.2,1.6-10.2,1.7C426.7,557.1,425.7,557.1,424.9,557.2 M261.3,262.6
					c-5.3,6.6-12.9,22.1-4.5,52c-1.6,5.4-3.5,11.5-5.4,18c-18.8,8.9-45.4,9.5-52.1,9.5c-7.4-43.9,1-74.1,3.4-81.3
					C228.7,264.2,251.4,263.3,261.3,262.6z M181.1,499.2c-4.8-7.9-13.6-25.2-12.2-45.2c1.3-16.9,1.1-42.1-6.6-66.5
					c-5-15.8-6.8-24.2-7.7-28.2c-0.1-0.5-0.2-0.9-0.3-1.2c4.4,1.7,8.6,2.8,12.2,3.2c0.8,0.1,2.3,0.2,4.2,0.2c7.3,0,20.9-2,28.1-15.6
					c6,0,31.3-0.2,51-8.4c-7,23.7-15,51.8-20.3,73c-3.2,13-9,25.1-17.2,35.9c-13.1,18.6-22.1,35.5-30.1,50.5L181.1,499.2z
					 M123.6,235.2c0.1-1.9,1.5-10.6,2.9-19c1.8-11.1,2.9-18,2.9-19.7c0.1-3.8-1.4-22.6-2.8-40.5c-0.2-2.5-0.4-4.3-0.4-4.7l-1.5-21.6
					c-1-13.9-1-13.9-0.9-16.6c0.1-1.9,0.1-5,0-14.4c-0.1-8.2,1.4-14.1,3.2-20.9c0.5-1.7,0.9-3.5,1.4-5.4l0.1-0.4
					c0.3,1.1,0.4,2.1,0.3,3.1l-2.1,18.7c-0.4,2.8,1.3,5,1.5,5.4l5.5,6l4.8-15.8c0.4-0.8,0.7-1.6,1.1-2.4l0.1,0.1
					c0.7,0.5,0.9,1.4,0.8,2c-0.4,1-9.8,25.5,0.1,52.3c5.8,15.6,12.5,39.3,11.8,64.3c-0.5,17.1,0.4,29.7,0.9,37.2
					c0.1,2,0.2,3.6,0.3,4.8v1.3l1.2,0.5c8.5,3.2,17.3,5.7,26,7.6c-1.6,2.7-3.7,5.7-6.5,7.7c-20.4,14.3-45.2,2.4-53.2-2.2
					C121.9,247.7,123.6,235.4,123.6,235.2z M120.9,266.9c6.2,3.3,18.1,8.6,31.2,8.6c8,0,16.5-2,24.5-7.5c4-2.8,6.4-6.8,8.3-10.1
					c4.7,0.9,9.3,1.7,13.8,2.4c-2.8,8.7-10.9,38.9-3.1,83.4c-7.8,15.4-25.1,14.2-28.7,13.7c-13-1.3-34.7-14.6-45.1-21L121,336
					c0.3-1.6,0.6-4.3,0.4-7.3c4.9,2.2,14.1,5.6,23.6,5.6c8.3,0,16.7-2.6,22.6-10.9l0.5-0.7l-0.2-0.9c-7.2-29.7-39.8-40.8-47.2-43
					C120.7,274.9,120.8,270.8,120.9,266.9z M118.8,280.3L118.8,280.3L118.8,280.3L118.8,280.3z M42.1,341.9c1-0.7,3.9-2.1,8.1-1.4
					c0.5,0.7,0.9,2-0.1,3.2c-3.2,2-6.4,1.7-7.2,1.5C41.7,344.5,41.9,342.8,42.1,341.9z M73,348.8c0.2,0,15.8-3.9,25.7,3.7
					c4.6,3.5,7.3,9.1,7.9,16.5c-3.6-1.5-10.2-3-20.9-1.2c-23.2,3.9-30.5,0.8-30.7,0.7c-10.7-4.8-11.4-15.1-11.2-19.4
					c0.2,0,0.4,0,0.7,0c1.7,0,4-0.4,6.4-1.6C53.2,349.6,58.9,351.9,73,348.8z M84.4,325.8c-3.3,6.6-17.2,10.9-27.7,10.3l-5.5,0.6
					c-5.2-0.9-9,0.6-10.8,1.7c-1.5-1-3-2.1-4.6-3.1c-2.7-1.7-5.5-3.6-7.8-5.6c-8-7.2-10.1-11.1-11.5-16.7c-1.2-4.7-1.5-10-0.9-15.7
					c1.6-15.1,5.4-20.9,8-22.7c0.2,1.3,1.2,6.3,5,9.5c2.3,1.9,5.5,2.8,9.4,2.5c3.7-0.2,5.3,1.6,8.2,5.5c0.5,0.7,1.1,1.5,1.7,2.2
					c0.9,1.1,2.3,1.7,4,1.4l4.7-1.2c0.9-0.2,1.8,0.1,2.2,0.9l0.6,0.9c0.3,0.5,0.4,1.1,0.2,1.7s-0.6,1-1.1,1.3l-4.1,1.7
					c-3.4,1.9-6.6,6.2-4.1,11.7c1.2,2.7,3.6,4.5,6.3,4.7c0.8,0.1,1.8,0.2,2.9,0.2c3.8,0.3,9.2,0.5,13.4,0c3-0.3,6.1,0.3,9.2,2.1
					C84.6,321,85.5,323.7,84.4,325.8z M105.9,313.7c-2.7,0-5,0.4-7.4,1.1c-1.4,0.4-2.9,1.1-4.5,1.9c-1.2,0.6-3.5,1.8-6.4,2.9
					c-0.8-1.4-2-2.6-3.6-3.5c-3.5-2-7.4-2.8-11.2-2.4c-0.3,0-0.7,0-1.1,0.1c1.7-1.1,3.1-2.5,4.1-4.1c1.7-2.8,2-6,0.8-9.4l-3.7,1.3
					c0.8,2.2,0.7,4.3-0.4,6.1c-1.8,3-6.3,5.1-12.6,6c-1-0.1-1.9-0.1-2.6-0.2c-1.3-0.1-2.5-1-3.1-2.5c-1.7-3.8,1.1-5.9,2.3-6.6
					l3.9-1.7c1.6-0.7,2.8-2,3.3-3.7s0.3-3.5-0.7-4.9l-0.6-0.9c-1.4-2.2-4-3.2-6.5-2.6l-4.7,1.1c-0.6-0.7-1.1-1.4-1.6-2.1
					c-2.9-3.8-5.6-7.4-11.6-7c-2.9,0.2-5.1-0.3-6.6-1.6c-2.6-2.2-3.5-5.9-3.7-6.9l0.2-1c2.1-1.7,11.2-8.7,21.9-9
					c0.2,0,0.5,0,4.3-0.7l0.5-0.1l10.9-9.5c0.2-0.1,0.6-0.3,0.8-0.2c0.3,0.1,0.9,0.9,1.3,3.1l0.1,0.5l2.7,3.3l6.5-0.9l3.5,2.9
					l3.2-2.5l0.3,0.1c2,0.7,4.2,0.8,6.4,0.2c2.7-0.8,4.9-0.8,6.1-0.1c0.5,0.3,0.8,0.7,1,1.3c0.5,2.3,0.6,4.9,0.3,7.5
					c-0.4,3.3-0.3,6.5,0.2,9.5c0.2,1.1,0.4,2.1,0.8,3.1l0.2,0.7l0.6,0.4c0.2,0.1,4,2.3,9.6,2.3c2.9,0,6.2-0.6,9.8-2.3
					c5.1,1.5,37.5,11.8,44.9,39.4c-12.6,16.4-38.4,4.6-43.3,2.2c-0.5-1.8-1.3-3.6-2.5-5.1C115.5,315.5,111.4,313.7,105.9,313.7z
					 M160.7,499.5c-2.5-9.1-3.4-12.1-4-13.9c-0.8-2.6-0.8-2.6-3.7-16.2l-4.5-21.1c-0.1-0.4-0.4-2.1-0.9-4.6
					c-3.5-17.6-7.3-36.1-8.5-39.8c-0.5-1.6-3.5-7.9-8.3-18.1c-3.6-7.7-7.4-15.7-8.1-17.7c-0.1-0.1-7.5-14.4-2.8-28.3
					c7.5,4.6,19.1,11.7,30.2,16.5c0.2,0.7,0.2,1.2,0.3,1.4c0.2,0.5,0.3,1.3,0.6,2.5c0.9,4.1,2.7,12.6,7.8,28.6
					c7.5,23.8,7.7,48.5,6.4,65c-2.1,28.6,15.2,51.4,15.9,52.2c0.4,0.7,0.4,1.6-0.1,2.3l-0.1,0.1c-0.5-0.7-1.1-1.3-1.6-1.8l-10.8-16
					l-3.7,7.4c-0.1,0.3-1.1,2.9,0.1,5.4l7.2,17.4c0.4,1,0.6,2.1,0.6,3.2l-0.2-0.4c-0.9-1.7-1.9-3.3-2.8-4.8
					C165.9,512.6,162.8,507.4,160.7,499.5z M168.3,501.8c-0.4-0.9-0.1-2.1-0.1-2.3l0.6-1.2l7.1,10.5c-0.9,1.7-1.8,3.3-2.7,4.8
					L168.3,501.8z M210.2,509.3c-3.9,3.5-14.4,16.4-22.5,26.6c-4.9,6.2-7.7,13.8-7.9,21.5v0.2v0.2c0,0.1,0.9,5.9-2.4,9.1
					c-2.2,2.2-6.1,2.8-11.3,1.8c-0.4-0.1-9.6-2-21.1,0.1c-11.6,2.1-23.9-0.3-28.6-1.4c-2.2-0.5-4.5-0.5-6.6,0.2
					c-0.3,0.1-0.4,0.1-0.2,0l0.2-2.6l-2.5,0.5c-0.6,0.1-1.4,0.2-1.5-0.3l-0.3-1.7l-1.8,0.1c-0.7,0-0.9-0.1-0.7-0.1l1.1-2.9l-3.2,0.3
					c-0.9,0.1-1.7-0.5-1.7-1.3c-0.1-0.9,0.2-1.4,0.4-1.6c0.8-0.9,2.5-1.1,3.1-1.1c3.7,0,11-0.5,18.2-3.2c1.7-0.6,4.2-1.5,7.2-2.5
					c10.6-3.6,26.6-9.1,32.1-13.7c3.2-2.7,6.2-6.2,9.4-10.6l0.6,1.1c0.6,1.1,1.7,1.7,2.8,1.7c0.2,0,0.4,0,0.6-0.1
					c1.4-0.3,2.4-1.4,2.6-2.8l0.1-0.8c0.2-2.1,0-4.3-0.7-6.4l-0.5-1.2c1.2-2,2.4-4,3.6-6.2c0.5,0.6,1.2,1.1,2.1,1.1
					c1,0,1.8-0.4,2.3-1.2l0.9-1.3c1.4-2,1.5-4.6,0.1-6.8c0,0-0.2-0.3-0.6-0.8l2.2-4.2c7.9-14.9,16.9-31.7,29.8-50
					c8.5-11.2,14.5-23.7,17.9-37.2c1.6-6.7,3.6-14,5.7-21.7c23.5,1.5,35,12.2,40.1,19.3C258.7,444.5,230,491.2,210.2,509.3z
					 M305.4,363.4c-0.9,1.1-3.6,5.8-9.5,16.3c-3.9,6.9-8.9,15.7-14.6,25.7c-5.9-7.5-18.1-17.8-41.2-19.4
					c11.6-42.6,27.4-93.3,27.6-93.9l-3.7-1.2c-0.1,0.2-2,6.5-5,16.4c-6.8-31.4,6.1-43.5,8.2-45.3c4.4-0.7,38.9-5.6,57.1,9.3
					c7.2,5.9,11,14.3,11.3,24.9l0.1,1.6C336.1,306,337.1,325.4,305.4,363.4z M314.3,358.6c26.6-34.5,25.7-52.8,25.3-61l-0.1-1.5
					c0-0.5-0.1-1-0.1-1.4c33.1,55.5,40.9,70.5,46.6,82.4c-9.6,1.2-28.9,6.5-38,28.2C327.3,384.4,318,367.1,314.3,358.6z
					 M495.1,560.6c-1.8,2.1-5.5,3.1-10.7,2.8c-0.8,0-20.1-0.6-28.1,1.8c-8,2.4-16.8,1.7-20.2,1.3c-1.4-0.2-2.9,0-4.4,0.5l-0.1-1.8
					l-2.4,0.8c-0.2,0.1-0.4,0.1-0.4,0.2l-0.4-1.6l-1.5,0.2l0.6-2.3l-3.1,0.6c-0.2,0-0.3,0-0.5-0.1c-0.1-0.1-0.2-0.2-0.2-0.3
					c-0.1-0.5,0-0.7,0.1-0.7c0.3-0.4,1.2-0.7,1.7-0.8c0.7-0.1,1.6-0.1,2.6-0.1c3.4-0.1,8.1-0.2,11.9-2.1l2.7-1.4
					c21.4-10.7,25-13.6,25-16.1l-0.1-0.5c-0.3-0.9-15.2-29.1-28.4-41.1c-16.5-14.9-25.9-26.6-30.8-33.8c-1.2-1.7-2.4-3.5-3.6-5.2
					c-6.9-10.2-13.5-19.9-23.6-27.3c-12-8.7-21.9-17.2-30.2-25.2c8.6-22.2,28.3-26.6,36.8-27.5c2.7,5.8,5.7,11.8,11.5,22.5
					c1.7,3.1,3.6,6.1,5.8,8.9c3.2,4.1,6.9,7.9,11,11.2l10,8c1.5,1.4,3.1,2.7,4.7,4c10.7,8.9,24,20,43.5,75.6
					c2.5,7.1,5.8,13.9,9.8,20.4c3.1,4.6,11.4,17.7,12.2,23.7C496.4,555.2,497.1,558.3,495.1,560.6z"/>
				<path class="st0" d="M244.5,316.9c1.2,0.7,2.6,1.1,4.1,1.1c0.2,0,0.4,0,0.5,0l-0.2-3.9c-0.9,0-1.7-0.1-2.4-0.5
					c-0.4-0.2-0.6-0.5-0.6-0.8c0-0.6,1.1-1.5,2.8-1.6l-0.2-3.9c-3.8,0.2-6.7,2.8-6.5,5.8C242.1,314.5,243,315.9,244.5,316.9z"/>
			</g>
		</g>
		<path class="st0" d="M166.9,357.5c-13-1.3-34.7-14.6-45.1-21L121,336c0.3-1.6,0.6-4.3,0.4-7.3c4.9,2.2,14.1,5.6,23.6,5.6
			c8.3,0,16.7-2.6,22.6-10.9l0.5-0.7l-0.2-0.9c-7.2-29.7-39.8-40.8-47.2-43c0-4,0-8,0.2-12c6.2,3.3,18.1,8.6,31.2,8.6
			c8,0,16.5-2,24.5-7.5c4-2.8,6.4-6.8,8.3-10.1c4.7,0.9,9.3,1.7,13.8,2.4c-2.8,8.7-10.9,38.9-3.1,83.4
			C187.8,359.1,170.5,357.9,166.9,357.5z"/>
	</g>
</g>
</svg>
