<?xml version="1.0" encoding="utf-8"?>
<!-- Generator: Adobe Illustrator 25.1.0, SVG Export Plug-In . SVG Version: 6.00 Build 0)  -->
<!DOCTYPE svg PUBLIC "-//W3C//DTD SVG 1.1//EN" "http://www.w3.org/Graphics/SVG/1.1/DTD/svg11.dtd" [
	<!ENTITY ns_extend "http://ns.adobe.com/Extensibility/1.0/">
	<!ENTITY ns_ai "http://ns.adobe.com/AdobeIllustrator/10.0/">
	<!ENTITY ns_graphs "http://ns.adobe.com/Graphs/1.0/">
	<!ENTITY ns_vars "http://ns.adobe.com/Variables/1.0/">
	<!ENTITY ns_imrep "http://ns.adobe.com/ImageReplacement/1.0/">
	<!ENTITY ns_sfw "http://ns.adobe.com/SaveForWeb/1.0/">
	<!ENTITY ns_custom "http://ns.adobe.com/GenericCustomNamespace/1.0/">
	<!ENTITY ns_adobe_xpath "http://ns.adobe.com/XPath/1.0/">
]>
<svg version="1.1"
	 id="Layer_1" xmlns:x="&ns_extend;" xmlns:i="&ns_ai;" xmlns:graph="&ns_graphs;" xmlns:cc="http://creativecommons.org/ns#" xmlns:dc="http://purl.org/dc/elements/1.1/" xmlns:inkscape="http://www.inkscape.org/namespaces/inkscape" xmlns:rdf="http://www.w3.org/1999/02/22-rdf-syntax-ns#" xmlns:sodipodi="http://sodipodi.sourceforge.net/DTD/sodipodi-0.dtd" xmlns:svg="http://www.w3.org/2000/svg"
	 xmlns="http://www.w3.org/2000/svg" xmlns:xlink="http://www.w3.org/1999/xlink" x="0px" y="0px" viewBox="0 0 16.9 21.2"
	 style="enable-background:new 0 0 16.9 21.2;" xml:space="preserve">
<style type="text/css">
	.st0{fill:#B286FD;}
</style>
<metadata>
	<sfw  xmlns="&ns_sfw;">
		<slices></slices>
		<sliceSourceBounds  bottomLeftOrigin="true" height="12.6" width="15.3" x="0.8" y="4.3"></sliceSourceBounds>
	</sfw>
</metadata>
<g>
	<path class="st0" d="M1.9,4.3c-0.6,0-1.1,0.5-1.1,1.1v10.4c0,0.6,0.5,1.1,1.1,1.1H15c0.6,0,1.1-0.5,1.1-1.1V5.4
		c0-0.6-0.5-1.1-1.1-1.1L1.9,4.3z M1.9,4.8H15c0.3,0,0.6,0.3,0.6,0.6v1.7H1.3V5.4C1.3,5.1,1.6,4.8,1.9,4.8z M2.7,5.7
		c-0.1,0-0.3,0.1-0.3,0.3c0,0.1,0.1,0.3,0.3,0.3h0.7c0.1,0,0.3-0.1,0.3-0.3c0-0.1-0.1-0.3-0.3-0.3c0,0,0,0,0,0H2.7z M4.8,5.7
		c-0.1,0-0.3,0.1-0.3,0.3c0,0.1,0.1,0.3,0.3,0.3h0.7c0.1,0,0.3-0.1,0.3-0.3c0-0.1-0.1-0.3-0.3-0.3c0,0,0,0,0,0H4.8z M1.3,7.7h14.3
		v8.1c0,0.3-0.3,0.6-0.6,0.6H1.9c-0.3,0-0.6-0.3-0.6-0.6V7.7z M7.6,8.9C7.5,8.9,7.4,9,7.4,9.2c0,0,0,0,0,0V10
		c-0.3,0.1-0.7,0.2-1,0.4L5.8,9.8c-0.1-0.1-0.3-0.1-0.4,0c0,0,0,0,0,0L4.3,11c-0.1,0.1-0.1,0.3,0,0.4L4.9,12c-0.2,0.3-0.3,0.6-0.4,1
		H3.7c-0.1,0-0.3,0.1-0.3,0.3v1.6c0,0.1,0.1,0.3,0.3,0.3h0.9c0,0.1,0.1,0.2,0.1,0.3c0,0.1,0.2,0.2,0.3,0.2c0.1,0,0.2-0.2,0.2-0.3
		C5,15.1,5,14.9,5,14.8c0-0.1-0.1-0.2-0.3-0.2H3.9v-1.1h0.8c0.1,0,0.2-0.1,0.3-0.2c0.1-0.4,0.3-0.8,0.5-1.2c0.1-0.1,0.1-0.2,0-0.3
		l-0.6-0.6l0.8-0.8l0.6,0.6C6.3,11,6.4,11,6.5,11c0.4-0.2,0.8-0.4,1.2-0.5c0.1,0,0.2-0.1,0.2-0.3V9.4H9v0.8c0,0.1,0.1,0.2,0.2,0.3
		c0.4,0.1,0.8,0.3,1.2,0.5c0.1,0.1,0.2,0.1,0.3,0l0.6-0.6l0.8,0.8l-0.6,0.6c-0.1,0.1-0.1,0.2,0,0.3c0.2,0.4,0.4,0.8,0.5,1.2
		c0,0.1,0.1,0.2,0.3,0.2H13v1.1h-0.8c-0.1,0-0.2,0.1-0.3,0.2c0,0.2-0.1,0.3-0.1,0.5c0,0.1,0,0.3,0.2,0.3c0,0,0,0,0,0
		c0.1,0,0.3,0,0.3-0.2c0-0.1,0.1-0.2,0.1-0.3h0.9c0.1,0,0.3-0.1,0.3-0.3v-1.6c0-0.1-0.1-0.3-0.3-0.3h-0.9c-0.1-0.3-0.2-0.7-0.4-1
		l0.6-0.6c0.1-0.1,0.1-0.3,0-0.4l-1.2-1.2c-0.1-0.1-0.3-0.1-0.4,0c0,0,0,0,0,0l-0.6,0.6c-0.3-0.2-0.6-0.3-1-0.4V9.2
		c0-0.1-0.1-0.3-0.3-0.3L7.6,8.9z M8.5,12.3c-0.9,0-1.7,0.8-1.7,1.7c0,0.9,0.8,1.7,1.7,1.7c0.9,0,1.7-0.8,1.7-1.7
		C10.1,13.1,9.4,12.3,8.5,12.3z M8.5,12.8c0.6,0,1.1,0.5,1.1,1.2c0,0.6-0.5,1.2-1.1,1.2c-0.6,0-1.1-0.5-1.1-1.2
		C7.3,13.4,7.8,12.8,8.5,12.8z"/>
</g>
</svg>
