<?xml version="1.0" encoding="utf-8"?>
<!-- Generator: Adobe Illustrator 25.1.0, SVG Export Plug-In . SVG Version: 6.00 Build 0)  -->
<!DOCTYPE svg PUBLIC "-//W3C//DTD SVG 1.1//EN" "http://www.w3.org/Graphics/SVG/1.1/DTD/svg11.dtd" [
	<!ENTITY ns_extend "http://ns.adobe.com/Extensibility/1.0/">
	<!ENTITY ns_ai "http://ns.adobe.com/AdobeIllustrator/10.0/">
	<!ENTITY ns_graphs "http://ns.adobe.com/Graphs/1.0/">
	<!ENTITY ns_vars "http://ns.adobe.com/Variables/1.0/">
	<!ENTITY ns_imrep "http://ns.adobe.com/ImageReplacement/1.0/">
	<!ENTITY ns_sfw "http://ns.adobe.com/SaveForWeb/1.0/">
	<!ENTITY ns_custom "http://ns.adobe.com/GenericCustomNamespace/1.0/">
	<!ENTITY ns_adobe_xpath "http://ns.adobe.com/XPath/1.0/">
]>
<svg version="1.1" id="Layer_1" xmlns:x="&ns_extend;" xmlns:i="&ns_ai;" xmlns:graph="&ns_graphs;"
	 xmlns="http://www.w3.org/2000/svg" xmlns:xlink="http://www.w3.org/1999/xlink" x="0px" y="0px" viewBox="0 0 64 80"
	 style="enable-background:new 0 0 64 80;" xml:space="preserve">
<style type="text/css">
	.st0{fill:#E55733;}
</style>
<metadata>
	<sfw  xmlns="&ns_sfw;">
		<slices></slices>
		<sliceSourceBounds  bottomLeftOrigin="true" height="69.7" width="48.4" x="7.8" y="5.1"></sliceSourceBounds>
	</sfw>
</metadata>
<g>
	<path class="st0" d="M10.2,31.3h36.1V45c0,0.3,0.1,0.6,0.4,0.9l6,6l-5.6,1.9c-0.5,0.2-0.9,0.6-0.9,1.2v7.5c0,3.4-2.8,6.2-6.2,6.2
		h-7.5c-0.7,0-1.2,0.6-1.2,1.2v5h2.5v-3.7H40c4.8,0,8.7-3.9,8.7-8.7v-6.6l6.6-2.2c0.7-0.2,1-0.9,0.8-1.6c-0.1-0.2-0.2-0.3-0.3-0.5
		l-7.1-7.1V30c0-0.7-0.6-1.2-1.2-1.2h-4c1.6-1.5,2.6-3.6,2.8-5.8c0-5-6.7-5.5-8.7-1.5c-2-4-8.7-3.5-8.7,1.5c0.2,2.2,1.2,4.3,2.8,5.8
		h-8.3c1.3-3,0.1-6.5-2.9-8l2.2-1.2l5.4,3l-1-6.3l4.4-4.5l-6-0.9l-2.7-5.7L20,10.9l-6,0.9l4.4,4.5l-0.6,3.8c-3.4,0-6.2,2.7-6.2,6.2
		c0,0.9,0.2,1.7,0.5,2.6H9c-0.7,0-1.2,0.6-1.2,1.2v44.8h2.5V31.3H10.2z"/>
	<path class="st0" d="M43.8,37.5h-2.5c0,1.4-1.1,2.5-2.5,2.5s-2.5-1.1-2.5-2.5h-2.5c0,2.7,2.2,5,5,5S43.8,40.3,43.8,37.5z"/>
</g>
</svg>
